# xmcd
#
# Track frame offsets: 
#        150
#        24297
#        46030
#        65150
#        88397
#        113079
#        133765
#        153640
#        175922
#        196882
#
# Disc length: 2981 seconds
#
# Revision: 1
# Processed by: cddbd v1.5.2PL0 Copyright (c) Steve Scherf et al.
# Submitted via: ExactAudioCopy v1.0b3
#
DISCID=860ba30a
DTITLE=Khanh Ha - Chieu Thu Ay
DYEAR=2000
DGENRE=VietPOP
TTITLE0=LK Vu Thanh An
TTITLE1=Nho mua thu Ha Noi
TTITLE2=Noi buon
TTITLE3=Bien can
TTITLE4=Gio
TTITLE5=Ru toi giac mong
TTITLE6=Chieu thu ay
TTITLE7=Hoang lanh
TTITLE8=Khong con mua thu
TTITLE9=Nguyet cam
EXTD=
EXTT0=
EXTT1=
EXTT2=
EXTT3=
EXTT4=
EXTT5=
EXTT6=
EXTT7=
EXTT8=
EXTT9=
PLAYORDER=
